<svg width="100" height="100" viewBox="0 0 100 100" fill="none" xmlns="http://www.w3.org/2000/svg">
<rect width="100" height="100" fill="#1E1E1E"/>
<rect width="100" height="100" rx="50" fill="#081054"/>
<path d="M33.0989 48.0344C33.2425 48.0331 33.4898 48.0469 33.841 48.0758C34.208 48.0885 34.5909 48.1011 34.9898 48.1136C35.3887 48.1261 35.7637 48.1467 36.1149 48.1755C36.4819 48.1883 36.7292 48.1941 36.8568 48.193L37.0721 48.1911L37.2396 48.1897C37.3511 48.1727 37.5103 48.1394 37.7173 48.0898C37.9242 48.0401 38.0435 48.0072 38.0753 47.9909C38.6158 47.7789 39.0602 47.5277 39.4086 47.2376C39.7569 46.9315 40.065 46.6018 40.3331 46.2485C40.6011 45.8793 40.845 45.4944 41.0648 45.0937C41.3004 44.6769 41.5758 44.2518 41.8911 43.8183C41.9223 43.7383 41.9773 43.6421 42.056 43.5298C42.1347 43.4015 42.1738 43.3134 42.1734 43.2656C42.1732 43.2496 42.1806 43.1778 42.1954 43.05C42.2262 42.9221 42.2489 42.7864 42.2636 42.6427C42.2783 42.499 42.2931 42.3633 42.3079 42.2355C42.3228 42.1078 42.3301 42.028 42.3298 41.9961C42.3455 41.964 42.3684 41.8522 42.3986 41.6605C42.4448 41.4687 42.4837 41.3567 42.5153 41.3245L42.5118 40.9178C42.5089 40.5828 42.4899 40.2321 42.4548 39.8655C42.4196 39.4989 42.313 39.1569 42.1347 38.8395C41.908 38.4427 41.7132 38.0536 41.5503 37.6721C41.4033 37.2747 41.2165 36.8935 40.99 36.5286C40.958 36.5129 40.9098 36.4734 40.8454 36.4102C40.7969 36.3308 40.7404 36.2596 40.6761 36.1963C40.6275 36.117 40.5791 36.0456 40.5307 35.9822C40.4821 35.9029 40.4498 35.8553 40.4337 35.8395C40.4336 35.8236 40.4012 35.768 40.3365 35.6729C40.2718 35.5618 40.1991 35.4588 40.1185 35.3638C40.0537 35.2527 39.981 35.1496 39.9005 35.0546C39.8358 34.9595 39.7955 34.904 39.7794 34.8882C39.779 34.8403 39.7547 34.8007 39.7066 34.7692C39.6744 34.7376 39.6423 34.7219 39.6104 34.7222C39.4821 34.6435 39.3462 34.5969 39.2025 34.5822C39.0588 34.5675 38.9152 34.5607 38.7716 34.562C38.6281 34.5633 38.4844 34.5565 38.3408 34.5418C38.213 34.527 38.0849 34.4643 37.9563 34.3538C37.748 34.2439 37.5557 34.1419 37.3794 34.0478C37.2189 33.9375 37.0507 33.8512 36.8747 33.789C36.7145 33.7106 36.5305 33.6564 36.3229 33.6263C36.1311 33.5801 35.8996 33.5582 35.6285 33.5606L35.2935 33.5635C35.2138 33.5642 35.0862 33.5733 34.9109 33.5908C34.7516 33.6081 34.5763 33.6336 34.3852 33.6671C34.194 33.6848 34.0027 33.7024 33.8114 33.72C33.6361 33.7375 33.5086 33.7466 33.4288 33.7473C33.413 33.7634 33.3656 33.8116 33.2866 33.8921C33.2075 33.9725 33.1205 34.061 33.0257 34.1575C32.9466 34.238 32.8596 34.3185 32.7646 34.3991C32.6855 34.4795 32.6302 34.5358 32.5986 34.568C32.5989 34.5999 32.5836 34.6798 32.5528 34.8077C32.5378 34.9195 32.5147 35.0074 32.4833 35.0715C32.4839 35.1353 32.453 35.2552 32.3908 35.4312C32.3443 35.5911 32.3214 35.7109 32.3221 35.7907C32.2597 35.9507 32.2135 36.1426 32.1836 36.3661C32.1694 36.5736 32.0992 36.7497 31.9729 36.8944L31.9823 37.971L31.9921 39.0955C32.0089 39.191 32.027 39.4461 32.0466 39.8606C32.066 40.2592 32.0858 40.6977 32.1059 41.1761C32.1419 41.6384 32.1696 42.0768 32.1892 42.4913C32.2086 42.8899 32.2188 43.1371 32.2196 43.2328C32.2203 43.3125 32.214 43.504 32.2007 43.8072C32.1874 44.1104 32.1663 44.4376 32.1375 44.7887C32.1246 45.1398 32.1115 45.4749 32.0984 45.794C32.0851 46.0972 32.0708 46.2887 32.0555 46.3686L32.0593 46.7993C32.0614 47.0385 32.1592 47.2849 32.3529 47.5384C32.5624 47.7918 32.8111 47.9571 33.0989 48.0344ZM48.1967 64.4838C47.8617 64.4867 47.5271 64.5295 47.1929 64.6122C46.8585 64.6789 46.5318 64.7137 46.2128 64.7165C46.133 64.7172 45.9891 64.6706 45.7809 64.5767C45.5727 64.4828 45.3564 64.373 45.132 64.2474C44.9234 64.1056 44.7228 63.9718 44.5303 63.8459C44.3537 63.7198 44.2412 63.6171 44.1926 63.5378C43.9666 63.2207 43.7803 62.8953 43.6338 62.5616C43.5033 62.2278 43.341 61.9102 43.147 61.6088C43.1144 61.5294 43.0256 61.4105 42.8807 61.2523C42.7515 61.0779 42.6868 60.9748 42.6865 60.9429C42.6542 60.8953 42.5976 60.8081 42.5168 60.6812C42.4519 60.5541 42.3789 60.4192 42.2979 60.2763C42.2327 60.1174 42.1677 59.9744 42.1027 59.8474C42.0538 59.7202 42.0291 59.6327 42.0287 59.5848C41.9805 59.5533 41.9081 59.4822 41.8115 59.3714C41.7306 59.2445 41.6739 59.1493 41.6415 59.0857C41.2377 58.515 40.834 57.9523 40.4304 57.3975C40.0426 56.8267 39.6626 56.2398 39.2905 55.6369C39.2902 55.605 39.2658 55.5494 39.2173 55.47C39.1847 55.3906 39.1523 55.335 39.1201 55.3034C38.9083 54.7948 38.6729 54.3183 38.4138 53.874C38.1547 53.4296 37.8874 52.9693 37.6121 52.4932C37.612 52.4773 37.5957 52.4375 37.5632 52.374C37.5306 52.2945 37.4901 52.2231 37.4417 52.1597C37.4091 52.0803 37.3766 52.0088 37.3441 51.9452C37.3116 51.8658 37.2872 51.8181 37.2711 51.8023C37.2392 51.8026 37.1351 51.7477 36.9586 51.6376C36.798 51.5113 36.6776 51.4167 36.5973 51.3536C36.5652 51.3379 36.5011 51.2986 36.4048 51.2356C36.3084 51.1567 36.2041 51.0858 36.0919 51.023C35.9955 50.9441 35.8992 50.8732 35.8029 50.8102C35.7067 50.7472 35.6425 50.7079 35.6105 50.6922C35.5783 50.6606 35.4898 50.5737 35.345 50.4314C35.2162 50.2889 35.1357 50.2019 35.1035 50.1703C35.0714 50.1546 35.0074 50.1233 34.9112 50.0763C34.8311 50.0291 34.735 49.9821 34.6229 49.9352C34.5266 49.8722 34.4304 49.8173 34.3343 49.7702C34.2382 49.7232 34.1662 49.692 34.1182 49.6764C34.0863 49.6767 33.9745 49.6617 33.7828 49.6315C33.591 49.5853 33.479 49.5464 33.4468 49.5148C33.399 49.5152 33.2869 49.4683 33.1106 49.3742C32.9343 49.28 32.8063 49.2333 32.7266 49.234L32.7026 49.2342C32.6069 49.235 32.4881 49.3238 32.3461 49.5005C32.2039 49.6612 32.062 49.8539 31.9204 50.0784C31.7787 50.287 31.6609 50.4954 31.567 50.7036C31.4731 50.9118 31.4265 51.0558 31.4272 51.1355C31.4298 51.4386 31.4642 51.7174 31.5302 51.972C31.6122 52.2265 31.6545 52.5053 31.6571 52.8084C31.6596 53.0955 31.6221 53.359 31.5444 53.5989C31.4827 53.8387 31.4529 54.0862 31.4552 54.3414C31.4577 54.6285 31.508 54.9152 31.6062 55.2015C31.7202 55.4717 31.8023 55.7341 31.8524 55.9889L31.8657 57.5201L31.8787 59.0035C31.8791 59.0513 31.8482 59.1712 31.7861 59.3632C31.7398 59.539 31.7168 59.6429 31.7171 59.6748L31.7185 59.8423C31.7225 60.3048 31.8296 60.6947 32.0398 61.0119C32.2657 61.313 32.5392 61.5738 32.8601 61.7943C33.1809 61.9989 33.5254 62.1793 33.8937 62.3356C34.2779 62.4918 34.6302 62.6482 34.9505 62.8049C35.2708 62.9457 35.5354 63.1029 35.7442 63.2765C35.9691 63.45 36.0825 63.6564 36.0846 63.8956C36.0863 64.087 36.016 64.2551 35.8737 64.3999C35.7472 64.5287 35.5807 64.6418 35.3742 64.7393C35.1835 64.8207 34.9846 64.8783 34.7775 64.912C34.5706 64.9616 34.3953 64.9871 34.2518 64.9883C34.1401 64.9893 33.9567 64.9829 33.7013 64.9692C33.4461 64.9714 33.1749 64.9658 32.8877 64.9524C32.6165 64.9548 32.3533 64.9491 32.0979 64.9354C31.8585 64.9215 31.6909 64.907 31.5951 64.8919L25.9245 64.8935C25.7976 64.9744 25.6385 65.0236 25.4472 65.0413C25.256 65.0589 25.0726 65.0684 24.8972 65.07L24.2751 65.0754L23.1028 65.0856C23.0068 65.0546 22.8706 64.984 22.6942 64.8739C22.5178 64.7637 22.429 64.6449 22.4279 64.5173C22.4269 64.4056 22.4658 64.2857 22.5444 64.1574C22.639 64.0289 22.7417 63.9164 22.8525 63.8197C22.9791 63.7069 23.106 63.6181 23.233 63.5532C23.3599 63.4723 23.4632 63.4315 23.543 63.4309L26.2465 63.4073C26.2784 63.407 26.3181 63.3827 26.3655 63.3344C26.4287 63.2701 26.4839 63.1978 26.5311 63.1177C26.5782 63.0375 26.6175 62.9654 26.6488 62.9013C26.696 62.8211 26.7194 62.7651 26.7191 62.7332L26.7152 62.2786L26.7047 61.0824C26.7203 61.0344 26.7352 60.9226 26.7497 60.747C26.7799 60.5553 26.8021 60.3557 26.8162 60.1483C26.8463 59.9406 26.8686 59.749 26.883 59.5734C26.8973 59.3819 26.9042 59.2622 26.9038 59.2144C26.9032 59.1506 26.8939 58.9991 26.8759 58.76C26.8578 58.5209 26.8478 58.2897 26.8459 58.0664C26.8449 57.9547 26.844 57.8511 26.8432 57.7554C26.8423 57.6597 26.8577 57.5957 26.8894 57.5635C26.8892 57.5476 26.8888 57.4997 26.8881 57.42C26.9032 57.3241 26.9173 57.1087 26.9303 56.7736C26.9433 56.4385 26.9549 55.9359 26.965 55.2659C26.975 54.5799 26.9747 53.6308 26.9641 52.4186C27.153 52.1299 27.2624 51.8737 27.2924 51.6501C27.3223 51.4266 27.336 51.1632 27.3333 50.8602C27.3323 50.7485 27.3231 50.6051 27.3056 50.4298C27.288 50.2385 27.2791 50.1269 27.2788 50.095C27.2785 50.0631 27.2461 50.0076 27.1816 49.9284C27.1329 49.8331 27.1085 49.7695 27.1082 49.7376L27.1078 49.6897C27.1041 49.2751 27.1324 48.8521 27.1924 48.4209C27.2683 47.9736 27.3044 47.5426 27.3008 47.1279C27.298 46.8089 27.256 46.57 27.1749 46.4112C27.1097 46.2523 27.0761 46.0611 27.0742 45.8378L27.0735 45.7661C27.0731 45.7182 27.0961 45.6143 27.1426 45.4544C27.2049 45.2784 27.2359 45.1745 27.2356 45.1426C27.251 45.0786 27.2661 44.9828 27.2809 44.855C27.2956 44.7114 27.3103 44.5677 27.325 44.424C27.3557 44.2802 27.3785 44.1523 27.3934 44.0406C27.4083 43.9128 27.4235 43.825 27.439 43.777L27.4263 42.3175L27.4212 41.7434C27.4207 41.6796 27.435 41.496 27.4643 41.1927C27.5094 40.8732 27.5543 40.5379 27.5991 40.1866C27.6597 39.8192 27.7126 39.4837 27.7578 39.1803C27.8028 38.8608 27.833 38.6612 27.8483 38.5813L27.8372 37.3133C27.8369 37.2814 27.8443 37.2175 27.8594 37.1217C27.8744 37.0099 27.8894 36.8981 27.9044 36.7863C27.9352 36.6584 27.9581 36.5466 27.9732 36.4507C27.9883 36.3549 27.9958 36.299 27.9957 36.2831L27.9942 36.1156L27.9928 35.9481C27.9925 35.9162 27.9439 35.8369 27.8471 35.7101C27.7502 35.5674 27.6856 35.4802 27.6534 35.4486C27.6211 35.401 27.5648 35.3457 27.4845 35.2826C27.4201 35.2194 27.3478 35.1562 27.2675 35.0931C27.203 35.0139 27.1387 34.9506 27.0744 34.9033C27.0262 34.8559 26.9941 34.8323 26.9781 34.8324C26.9459 34.8008 26.8181 34.77 26.5945 34.74C26.3708 34.6941 26.2269 34.6555 26.1628 34.6242C26.083 34.6249 25.9473 34.6021 25.7554 34.556C25.5636 34.5098 25.3638 34.4637 25.1561 34.4176C24.9483 34.3716 24.7485 34.3255 24.5567 34.2793C24.3808 34.233 24.2609 34.2021 24.197 34.1867C23.8773 34.1098 23.5649 33.953 23.2597 33.7164C22.9704 33.4637 22.8243 33.1699 22.8214 32.8349C22.8202 32.7073 22.8591 32.5953 22.9381 32.4989C23.0329 32.4024 23.1359 32.3217 23.247 32.257C23.3739 32.1761 23.509 32.1191 23.6523 32.0859C23.7954 32.0368 23.9148 32.0119 24.0105 32.011C24.2019 32.0094 24.3694 32.0159 24.5131 32.0306C24.6568 32.0453 24.8247 32.0917 25.0168 32.1697C25.5913 32.1966 26.1658 32.2315 26.7404 32.2743C27.3151 32.3172 27.8735 32.3362 28.4158 32.3315C28.9581 32.3267 29.4842 32.2982 29.9942 32.2459C30.5042 32.1936 30.9983 32.1494 31.4765 32.1134C31.6194 32.0324 31.7386 31.9835 31.8341 31.9667C31.9297 31.9499 32.0413 31.9409 32.1689 31.9398C32.3762 31.938 32.5443 32.0004 32.673 32.1268C32.8175 32.2372 32.9934 32.2915 33.2008 32.2897C33.5995 32.2862 33.9901 32.2589 34.3725 32.2077C34.7707 32.1404 35.1609 32.0732 35.5431 32.0061C35.9254 31.9389 36.2997 31.8799 36.6661 31.8288C37.0484 31.7617 37.4389 31.7264 37.8376 31.7229L38.7468 31.7149C38.8432 31.7939 38.9633 31.8486 39.1071 31.8793C39.2509 31.9099 39.3947 31.9326 39.5384 31.9473C39.6821 31.962 39.8178 31.9768 39.9455 31.9916C40.0731 31.9905 40.1769 32.0055 40.257 32.0367C40.3209 32.0521 40.4173 32.131 40.5461 32.2735C40.6749 32.4 40.7553 32.479 40.7875 32.5106L43.4504 33.3248C43.4504 33.3248 43.4987 33.3723 43.5952 33.4671C43.6916 33.546 43.7962 33.6488 43.909 33.7754C44.0377 33.9019 44.1584 34.0285 44.2712 34.1551C44.3999 34.2816 44.4965 34.3844 44.561 34.4636C44.5932 34.4952 44.6578 34.5824 44.7547 34.7251C44.8515 34.8519 44.916 34.9311 44.9482 34.9627C45.1579 35.232 45.423 35.4451 45.7434 35.6018C46.0797 35.7584 46.3125 35.9318 46.4418 36.1221C46.6688 36.5508 46.8481 36.9879 46.9796 37.4334C47.111 37.8629 47.2744 38.3161 47.47 38.7929C47.4701 38.8088 47.4864 38.8486 47.5189 38.9121C47.5513 38.9756 47.5839 39.0471 47.6165 39.1266C47.6489 39.1901 47.6815 39.2616 47.714 39.3411C47.7465 39.4046 47.7628 39.4443 47.7629 39.4603L47.7631 39.4842L47.7644 39.6278C47.7645 39.6437 47.749 39.6917 47.7178 39.7717C47.6866 39.8518 47.6555 39.9398 47.6244 40.0357C47.5932 40.1158 47.562 40.1958 47.5308 40.2758C47.4996 40.3558 47.4841 40.4118 47.4844 40.4437L47.4888 40.9461L47.5003 42.262C47.5005 42.2939 47.485 42.3419 47.4537 42.406C47.4223 42.47 47.3831 42.5422 47.3359 42.6223C47.2886 42.6866 47.2413 42.7508 47.194 42.815C47.1627 42.8791 47.1391 42.9191 47.1233 42.9352C47.1235 42.9512 47.116 43.0071 47.1009 43.1029C47.1016 43.1827 47.0943 43.2705 47.0792 43.3663C47.0641 43.4621 47.041 43.5501 47.0097 43.6301C46.9945 43.71 46.979 43.758 46.9632 43.7741C46.8557 44.2535 46.6607 44.7577 46.3782 45.2866C46.1116 45.8153 45.789 46.3205 45.4104 46.8024C45.0317 47.2683 44.6127 47.6946 44.1535 48.0815C43.6943 48.4683 43.2263 48.7675 42.7496 48.979C42.7177 48.9793 42.5982 48.9963 42.3912 49.03C42.2 49.0636 42.0887 49.1044 42.0573 49.1525C41.8033 49.2983 41.5822 49.5475 41.3938 49.9001C41.2215 50.2525 41.0726 50.5569 40.9472 50.8132C40.9634 50.8449 40.9796 50.8687 40.9957 50.8845C41.0279 50.9161 41.0679 50.9317 41.1157 50.9313C41.6781 51.405 42.2088 51.8948 42.7077 52.4009C43.2066 52.907 43.6741 53.4692 44.1102 54.0874C44.1104 54.1193 44.1351 54.2069 44.1842 54.35C44.2332 54.4772 44.2658 54.5566 44.282 54.5884C44.2823 54.6203 44.2987 54.676 44.3313 54.7555C44.3799 54.8348 44.4202 54.8903 44.4524 54.9219C44.582 55.1441 44.6956 55.3664 44.7932 55.5889C44.8907 55.7954 45.0043 56.0097 45.1338 56.2319C45.2474 56.4542 45.3527 56.6368 45.4496 56.7795C45.5466 56.9222 45.6435 57.0569 45.7403 57.1837C45.8371 57.3105 45.9419 57.4371 46.0546 57.5638C46.1674 57.6904 46.2964 57.8488 46.4416 58.0389C46.8289 58.546 47.2164 59.0849 47.6042 59.6558C48.0078 60.2106 48.4664 60.6612 48.9798 61.0076C49.2848 61.2283 49.6293 61.4087 50.0134 61.5489C50.4133 61.673 50.7814 61.8213 51.1179 61.9939C51.4543 62.1505 51.7353 62.3713 51.9611 62.6565C52.2027 62.9255 52.3258 63.3153 52.3302 63.8257L52.3336 64.2084C52.3343 64.2882 52.3271 64.376 52.3119 64.4718C52.3128 64.5675 52.2735 64.6317 52.194 64.6643C52.1621 64.6646 52.0586 64.6814 51.8834 64.7148C51.7084 64.7642 51.5811 64.8052 51.5016 64.8378C51.4697 64.8381 51.382 64.8388 51.2385 64.8401C51.095 64.8573 50.9197 64.8748 50.7125 64.8925C50.5213 64.9102 50.322 64.9279 50.1148 64.9456C49.9237 64.9792 49.7644 65.0045 49.637 65.0216L49.5891 65.022C49.4934 65.0228 49.3974 64.9918 49.3012 64.9288C49.2051 64.8818 49.1008 64.8189 48.9885 64.7401C48.8922 64.6771 48.7801 64.6223 48.6521 64.5756C48.5239 64.5129 48.3721 64.4823 48.1967 64.4838ZM55.5841 61.0696C55.5026 60.863 55.4532 60.6879 55.436 60.5445C55.4188 60.4011 55.4092 60.2178 55.4073 59.9945C55.4043 59.6595 55.4334 59.3323 55.4944 59.0127C55.5554 58.6931 55.6245 58.3815 55.7016 58.0778C55.7946 57.7739 55.8798 57.478 55.957 57.1902C56.0501 56.8864 56.1272 56.5826 56.1883 56.279C56.2648 55.8955 56.3333 55.5201 56.3939 55.1527C56.4703 54.7692 56.675 54.4643 57.008 54.2381C57.0557 54.2217 57.1433 54.205 57.2707 54.1879C57.3982 54.1709 57.5336 54.1537 57.677 54.1365C57.8204 54.1193 57.9479 54.1023 58.0594 54.0853C58.1869 54.0683 58.2745 54.0595 58.3224 54.0591C58.3862 54.0586 58.4743 54.0977 58.5866 54.1764C58.7149 54.2551 58.7953 54.3262 58.8277 54.3897C59.087 54.85 59.29 55.2709 59.4369 55.6525C59.5838 56.034 59.7713 56.503 59.9995 57.0592L60.1695 57.3449L60.1783 58.3497C60.2278 58.5407 60.293 58.7076 60.374 58.8505C60.4708 58.9772 60.5756 59.096 60.6882 59.2066C60.8007 59.3014 60.9132 59.3961 61.0256 59.4908C61.1541 59.5854 61.2827 59.6959 61.4114 59.8224C61.5244 59.9809 61.6216 60.1476 61.7028 60.3223C61.7999 60.481 61.9049 60.6316 62.0178 60.7742C62.1307 60.9168 62.2674 61.0432 62.4279 61.1534C62.5882 61.2478 62.804 61.2937 63.0751 61.2914C63.1871 61.3223 63.4106 61.3522 63.7459 61.3812C64.097 61.4101 64.4642 61.4467 64.8474 61.4912C65.2465 61.5197 65.6136 61.5484 65.9488 61.5773C66.3 61.6062 66.5395 61.628 66.6672 61.6428L66.8825 61.641C67.2334 61.6379 67.5677 61.5552 67.8853 61.3929C68.2187 61.2146 68.5444 61.0682 68.8624 60.9537C68.8941 60.9216 69.0054 60.8887 69.1966 60.8551C69.3875 60.8056 69.499 60.7807 69.5309 60.7804C69.5467 60.7643 69.6179 60.6999 69.7445 60.5871C69.887 60.4583 69.9898 60.3617 70.053 60.2973C70.0845 60.2492 70.1318 60.177 70.1947 60.0807C70.2736 59.9844 70.3446 59.896 70.4077 59.8157C70.4867 59.7193 70.5498 59.639 70.5971 59.5748C70.6603 59.5104 70.6998 59.4702 70.7156 59.4541C70.7155 59.4382 70.7151 59.3903 70.7144 59.3106C70.7295 59.2147 70.7446 59.1189 70.7597 59.023C70.7748 58.9272 70.79 58.8393 70.8053 58.7595C70.8205 58.6796 70.844 58.6315 70.8758 58.6153C70.8757 58.5993 70.8913 58.5593 70.9226 58.4952C70.9538 58.4152 70.9851 58.3432 71.0164 58.2791C71.0476 58.199 71.0789 58.127 71.1102 58.0629C71.1415 57.9829 71.157 57.9349 71.1568 57.9189C71.1725 57.8869 71.1879 57.823 71.203 57.7271C71.2181 57.6313 71.2333 57.5355 71.2484 57.4396C71.2633 57.3278 71.2785 57.232 71.2937 57.1521C71.3088 57.0563 71.3162 56.9924 71.316 56.9605C71.3154 56.8967 71.2825 56.7773 71.2171 56.6025C71.1676 56.4115 71.1427 56.3 71.1424 56.2681C71.1259 56.2045 71.1088 56.069 71.091 55.8618C71.0733 55.6546 71.0554 55.4315 71.0373 55.1923C71.0193 54.9532 71.0015 54.7381 70.9839 54.5468C70.9661 54.3396 70.9569 54.1961 70.9562 54.1164C70.9395 54.0367 70.8828 53.9336 70.786 53.8068C70.689 53.6641 70.5761 53.5215 70.4473 53.3791C70.3342 53.2205 70.2134 53.078 70.0846 52.9516C69.9558 52.8091 69.8511 52.6984 69.7707 52.6193C69.5932 52.3816 69.3759 52.1602 69.1189 51.9551C68.8619 51.7499 68.5973 51.5927 68.3252 51.4835C68.2771 51.452 68.1811 51.4209 68.0373 51.3903C67.8933 51.3437 67.8054 51.3205 67.7735 51.3208C67.7574 51.305 67.7092 51.2655 67.6289 51.2024C67.5484 51.1234 67.4601 51.0523 67.3638 50.9894C67.2834 50.9103 67.203 50.8392 67.1227 50.7761C67.0424 50.713 66.9862 50.6737 66.9542 50.658C66.9221 50.6423 66.8661 50.6189 66.7861 50.5877C66.7059 50.5405 66.6339 50.5172 66.5701 50.5178C66.554 50.502 66.4899 50.4706 66.3779 50.4237C66.2658 50.3769 66.1458 50.3301 66.0178 50.2833C65.8896 50.2206 65.7695 50.1659 65.6574 50.119C65.5453 50.0721 65.4813 50.0408 65.4652 50.025C65.3692 49.9939 65.2972 49.9626 65.249 49.9311C65.201 49.9156 65.1609 49.892 65.1288 49.8604C65.0967 49.8447 65.0485 49.8053 64.9842 49.742C64.9198 49.6788 64.8474 49.6076 64.767 49.5286C64.7025 49.4494 64.6381 49.3782 64.5737 49.3149C64.5093 49.2517 64.4691 49.2122 64.453 49.1964C64.4369 49.1805 64.3889 49.157 64.3089 49.1258C64.2446 49.0785 64.1645 49.0314 64.0684 48.9844C63.988 48.9213 63.8998 48.8662 63.8037 48.8192C63.7234 48.7561 63.6592 48.7088 63.6111 48.6773C63.1303 48.4263 62.6652 48.1353 62.2157 47.8042C61.7821 47.473 61.3486 47.1418 60.915 46.8106C60.4813 46.4635 60.0397 46.1324 59.5903 45.8173C59.1568 45.4861 58.7075 45.1869 58.2426 44.9198C58.1781 44.8406 58.0731 44.69 57.9276 44.468C57.7821 44.2459 57.6285 44.008 57.4668 43.7542C57.321 43.5002 57.1755 43.2702 57.0301 43.0641C56.8846 42.8421 56.7876 42.6914 56.739 42.6121C56.7068 42.5804 56.6664 42.517 56.6177 42.4217C56.569 42.3264 56.5124 42.2312 56.4478 42.1361C56.3989 42.0248 56.3502 41.9216 56.3015 41.8263C56.2688 41.7309 56.2442 41.6593 56.2278 41.6116L56.217 40.3675C56.2117 39.7614 56.2224 39.1552 56.249 38.5488C56.2915 37.9423 56.3821 37.3593 56.5208 36.7998C56.6445 36.3521 56.8636 35.8716 57.1782 35.3584C57.5085 34.8292 57.887 34.3234 58.3134 33.8411C58.7398 33.3429 59.1826 32.9084 59.6419 32.5375C60.1012 32.1507 60.5374 31.8757 60.9507 31.7126C60.9667 31.7124 61.0225 31.712 61.1182 31.7111C61.2137 31.6943 61.3174 31.6855 61.429 31.6845C61.5565 31.6674 61.668 31.6505 61.7635 31.6337C61.875 31.6168 61.9467 31.6002 61.9784 31.584C62.0263 31.5836 62.1218 31.5668 62.2651 31.5336C62.4084 31.5005 62.5596 31.4593 62.7186 31.41C62.8777 31.3608 63.0289 31.3196 63.1722 31.2864C63.3154 31.2533 63.411 31.2365 63.4589 31.2361C63.4748 31.2359 63.5466 31.2353 63.6742 31.2342C63.8177 31.233 63.9772 31.2316 64.1527 31.23C64.3439 31.2124 64.5353 31.2028 64.7267 31.2011C64.9181 31.1994 65.0616 31.1982 65.1573 31.1973C65.2211 31.1968 65.3407 31.1957 65.5162 31.1942C65.6916 31.1927 65.8751 31.199 66.0667 31.2133C66.2581 31.2117 66.4335 31.2101 66.593 31.2087C66.7685 31.2072 66.8881 31.2062 66.9519 31.2056C67.096 31.2681 67.2479 31.3147 67.4077 31.3452C67.5674 31.3597 67.7191 31.3823 67.8629 31.413C68.0226 31.4276 68.1743 31.4502 68.3181 31.4808C68.4779 31.5113 68.6299 31.5658 68.7741 31.6443C68.8065 31.6919 68.8629 31.7632 68.9435 31.8582C69.0239 31.9372 69.0803 31.9926 69.1124 32.0242C69.4349 32.4201 69.7887 32.7441 70.1737 32.9959C70.5587 33.2478 71.0224 33.3713 71.5647 33.3666C71.9475 33.3633 72.2342 33.3129 72.4247 33.2155C72.6151 33.1022 72.7736 32.9812 72.9001 32.8525C73.0264 32.7078 73.153 32.5871 73.2797 32.4903C73.4064 32.3775 73.6053 32.3199 73.8764 32.3176C74.02 32.3163 74.1238 32.3314 74.1878 32.3627C74.2518 32.3781 74.3403 32.473 74.4535 32.6475C74.4858 32.6951 74.5345 32.7824 74.5994 32.9094C74.6643 33.0365 74.7293 33.1715 74.7943 33.3145C74.8753 33.4573 74.9403 33.5924 74.9893 33.7195C75.054 33.8306 75.1026 33.91 75.1349 33.9575L75.136 34.0772L75.1378 34.2925C75.122 34.3086 75.0985 34.3566 75.0673 34.4367C75.0521 34.5166 75.0289 34.6045 74.9978 34.7005C74.9827 34.7963 74.9675 34.8842 74.9523 34.9641C74.937 35.0439 74.9295 35.0919 74.9296 35.1078L74.9469 37.0936C74.7422 37.3984 74.6091 37.6787 74.5475 37.9345C74.5019 38.1901 74.4167 38.478 74.2919 38.7981C74.2921 38.83 74.2532 38.942 74.1752 39.1341C74.0969 39.3102 74.042 39.4064 74.0102 39.4226C73.9323 39.6307 73.8621 39.8147 73.7997 39.9748C73.7531 40.1188 73.6824 40.247 73.5877 40.3595C73.5088 40.4559 73.3898 40.5287 73.2307 40.5779C73.0876 40.627 72.8804 40.6528 72.6093 40.6551C72.2424 40.6583 71.9388 40.5892 71.6982 40.4477C71.4577 40.3063 71.2647 40.1245 71.1192 39.9025C70.9738 39.6804 70.8519 39.4263 70.7537 39.14C70.6714 38.8536 70.5892 38.5672 70.5069 38.2808C70.4245 37.9785 70.3343 37.6921 70.2362 37.4218C70.138 37.1355 70.0083 36.8894 69.847 36.6835C69.8148 36.6519 69.7423 36.5727 69.6296 36.4461C69.5327 36.3193 69.4199 36.1847 69.2911 36.0423C69.1622 35.8999 69.0334 35.7654 68.9047 35.6389C68.7918 35.4964 68.7032 35.3934 68.6388 35.3302C68.5582 35.2352 68.4295 35.1087 68.2527 34.9507C68.0758 34.7928 67.891 34.6349 67.6982 34.477C67.5053 34.3033 67.3127 34.1614 67.1203 34.0514C66.9278 33.9255 66.7677 33.8631 66.6401 33.8642L64.4869 33.883C64.3745 33.8042 64.2704 33.7573 64.1746 33.7421C64.0947 33.7269 64.0069 33.7197 63.9112 33.7205L63.648 33.7228C63.1564 34.0461 62.689 34.4091 62.2459 34.8117C61.8028 35.2144 61.3837 35.6328 60.9887 36.0669L60.9916 36.4019C60.9941 36.689 60.9643 36.9285 60.9022 37.1204C60.856 37.3123 60.8342 37.5517 60.8367 37.8388L60.839 38.102C60.8393 38.1339 60.8641 38.2373 60.9135 38.4124C60.9788 38.5873 61.0116 38.6907 61.0119 38.7226C61.0302 38.9936 61.0403 39.2328 61.0421 39.4401C61.0439 39.6475 61.0536 39.8468 61.0712 40.038C61.1048 40.2291 61.1543 40.4201 61.2198 40.611C61.2853 40.8018 61.3907 41.0082 61.5362 41.2303C61.5844 41.2618 61.6326 41.3012 61.6808 41.3487L61.898 41.5621C61.9463 41.6095 62.0589 41.7122 62.2357 41.8702C62.4125 42.0282 62.5975 42.202 62.7906 42.3918C62.9994 42.5654 63.1923 42.7312 63.3691 42.8892C63.5619 43.047 63.6825 43.1496 63.7307 43.1971C63.7468 43.2129 63.787 43.2524 63.8514 43.3156C63.9158 43.3789 63.9802 43.4501 64.0447 43.5293C64.1251 43.6083 64.1975 43.6795 64.2619 43.7427C64.3422 43.8058 64.3904 43.8453 64.4065 43.8611C64.4385 43.8768 64.5186 43.916 64.6468 43.9786C64.7909 44.0412 64.9511 44.1196 65.1273 44.2137C65.3035 44.2919 65.4797 44.3781 65.656 44.4723C65.8323 44.5665 65.9685 44.6371 66.0646 44.6841C66.4808 44.8559 66.9053 45.0596 67.338 45.2951C67.7867 45.5304 68.2503 45.646 68.7288 45.6418C69.4989 46.1455 70.317 46.6728 71.1831 47.2235C72.0493 47.7742 72.8439 48.3495 73.5669 48.9493C73.631 48.9807 73.6953 49.0359 73.7598 49.1151C73.8402 49.1942 73.8966 49.2495 73.9287 49.2811C73.945 49.3129 73.9694 49.3765 74.0022 49.4719C74.0507 49.5513 74.0994 49.6465 74.1482 49.7578C74.213 49.8689 74.2618 49.9721 74.2945 50.0675C74.3432 50.1628 74.3756 50.2184 74.3917 50.2342C74.6664 50.6465 74.9489 51.0269 75.2391 51.3753C75.5291 51.7077 75.7479 52.1046 75.8955 52.5659C75.9117 52.5976 75.9283 52.6693 75.9452 52.7808C75.9781 52.8921 76.0031 53.0195 76.0203 53.1629C76.0374 53.2904 76.0544 53.4179 76.0715 53.5453C76.0884 53.6568 76.1049 53.7205 76.121 53.7363C76.1213 53.7682 76.1459 53.8477 76.1949 53.9749C76.2598 54.102 76.2925 54.1894 76.2929 54.2373L76.2958 54.5722C76.2982 54.8434 76.2443 55.0672 76.1342 55.2436C76.0399 55.4039 75.9701 55.6358 75.9249 55.9393C75.9255 56.0031 75.9349 56.1705 75.9532 56.4415C75.9714 56.6965 75.9816 56.9517 75.9838 57.2069C75.9865 57.5099 75.9721 57.6935 75.9408 57.7576C75.9409 57.7735 75.9174 57.8216 75.8703 57.9017C75.839 57.9818 75.792 58.0699 75.729 58.1662C75.6818 58.2463 75.6347 58.3265 75.5875 58.4067C75.5404 58.4868 75.509 58.5429 75.4933 58.575C75.4618 58.6231 75.3913 58.7673 75.2817 59.0075C75.172 59.2318 75.0466 59.4801 74.9054 59.7525C74.78 60.0088 74.6626 60.2571 74.553 60.4973C74.4433 60.7216 74.3647 60.8579 74.3173 60.9061C74.3176 60.938 74.2624 61.0103 74.1517 61.1229C74.057 61.2354 73.9385 61.364 73.7962 61.5088C73.6539 61.6536 73.5116 61.7984 73.3693 61.9433C73.2428 62.072 73.14 62.1765 73.061 62.257C72.5546 62.724 72.0318 63.1353 71.4926 63.4909C70.9532 63.8306 70.3653 64.091 69.7288 64.272C69.6492 64.2886 69.4661 64.3301 69.1796 64.3964C68.8931 64.4627 68.5826 64.5292 68.2482 64.596C67.914 64.6786 67.5876 64.7533 67.2692 64.8198C66.9667 64.8863 66.7357 64.9282 66.5764 64.9455L66.4089 64.947C65.5476 64.9545 64.6542 64.9384 63.7287 64.8986C62.8191 64.8587 61.9327 64.7308 61.0695 64.515C60.9096 64.4686 60.7655 64.406 60.6372 64.3274C60.5087 64.2328 60.3723 64.1383 60.2279 64.0438C60.0995 63.9493 59.9711 63.8547 59.8426 63.7601C59.7142 63.6655 59.57 63.587 59.4099 63.5246C59.2978 63.4777 59.1139 63.4155 58.858 63.338C58.6019 63.2445 58.3379 63.1511 58.0659 63.0578C57.8099 62.9643 57.5699 62.8787 57.3459 62.8009C57.1218 62.7071 56.9775 62.6286 56.9132 62.5654C56.8648 62.502 56.7761 62.3991 56.6473 62.2567C56.5184 62.1142 56.3815 61.9639 56.2366 61.8056C56.0916 61.6474 55.9547 61.4971 55.8259 61.3546C55.713 61.212 55.6324 61.117 55.5841 61.0696Z" fill="#0041E8"/>
<path d="M33.0989 48.0344C33.2425 48.0331 33.4898 48.0469 33.841 48.0758C34.208 48.0885 34.5909 48.1011 34.9898 48.1136C35.3887 48.1261 35.7637 48.1467 36.1149 48.1755C36.4819 48.1883 36.7292 48.1941 36.8568 48.193L37.0721 48.1911L37.2396 48.1897C37.3511 48.1727 37.5103 48.1394 37.7173 48.0898C37.9242 48.0401 38.0435 48.0072 38.0753 47.9909C38.6158 47.7789 39.0602 47.5277 39.4086 47.2376C39.7569 46.9315 40.065 46.6018 40.3331 46.2485C40.6011 45.8793 40.845 45.4944 41.0648 45.0937C41.3004 44.6769 41.5758 44.2518 41.8911 43.8183C41.9223 43.7383 41.9773 43.6421 42.056 43.5298C42.1347 43.4015 42.1738 43.3134 42.1734 43.2656C42.1732 43.2496 42.1806 43.1778 42.1954 43.05C42.2262 42.9221 42.2489 42.7864 42.2636 42.6427C42.2783 42.499 42.2931 42.3633 42.3079 42.2355C42.3228 42.1078 42.3301 42.028 42.3298 41.9961C42.3455 41.964 42.3684 41.8522 42.3986 41.6605C42.4448 41.4687 42.4837 41.3567 42.5153 41.3245L42.5118 40.9178C42.5089 40.5828 42.4899 40.2321 42.4548 39.8655C42.4196 39.4989 42.313 39.1569 42.1347 38.8395C41.908 38.4427 41.7132 38.0536 41.5503 37.6721C41.4033 37.2747 41.2165 36.8935 40.99 36.5286C40.958 36.5129 40.9098 36.4734 40.8454 36.4102C40.7969 36.3308 40.7404 36.2596 40.6761 36.1963C40.6275 36.117 40.5791 36.0456 40.5307 35.9822C40.4821 35.9029 40.4498 35.8553 40.4337 35.8395C40.4336 35.8236 40.4012 35.768 40.3365 35.6729C40.2718 35.5618 40.1991 35.4588 40.1185 35.3638C40.0537 35.2527 39.981 35.1496 39.9005 35.0546C39.8358 34.9595 39.7955 34.904 39.7794 34.8882C39.779 34.8403 39.7547 34.8007 39.7066 34.7692C39.6744 34.7376 39.6423 34.7219 39.6104 34.7222C39.4821 34.6435 39.3462 34.5969 39.2025 34.5822C39.0588 34.5675 38.9152 34.5607 38.7716 34.562C38.6281 34.5633 38.4844 34.5565 38.3408 34.5418C38.213 34.527 38.0849 34.4643 37.9563 34.3538C37.748 34.2439 37.5557 34.1419 37.3794 34.0478C37.2189 33.9375 37.0507 33.8512 36.8747 33.789C36.7145 33.7106 36.5305 33.6564 36.3229 33.6263C36.1311 33.5801 35.8996 33.5582 35.6285 33.5606L35.2935 33.5635C35.2138 33.5642 35.0862 33.5733 34.9109 33.5908C34.7516 33.6081 34.5763 33.6336 34.3852 33.6671C34.194 33.6848 34.0027 33.7024 33.8114 33.72C33.6361 33.7375 33.5086 33.7466 33.4288 33.7473C33.413 33.7634 33.3656 33.8116 33.2866 33.8921C33.2075 33.9725 33.1205 34.061 33.0257 34.1575C32.9466 34.238 32.8596 34.3185 32.7646 34.3991C32.6855 34.4795 32.6302 34.5358 32.5986 34.568C32.5989 34.5999 32.5836 34.6798 32.5528 34.8077C32.5378 34.9195 32.5147 35.0074 32.4833 35.0715C32.4839 35.1353 32.453 35.2552 32.3908 35.4312C32.3443 35.5911 32.3214 35.7109 32.3221 35.7907C32.2597 35.9507 32.2135 36.1426 32.1836 36.3661C32.1694 36.5736 32.0992 36.7497 31.9729 36.8944L31.9823 37.971L31.9921 39.0955C32.0089 39.191 32.027 39.4461 32.0466 39.8606C32.066 40.2592 32.0858 40.6977 32.1059 41.1761C32.1419 41.6384 32.1696 42.0768 32.1892 42.4913C32.2086 42.8899 32.2188 43.1371 32.2196 43.2328C32.2203 43.3125 32.214 43.504 32.2007 43.8072C32.1874 44.1104 32.1663 44.4376 32.1375 44.7887C32.1246 45.1398 32.1115 45.4749 32.0984 45.794C32.0851 46.0972 32.0708 46.2887 32.0555 46.3686L32.0593 46.7993C32.0614 47.0385 32.1592 47.2849 32.3529 47.5384C32.5624 47.7918 32.8111 47.9571 33.0989 48.0344ZM48.1967 64.4838C47.8617 64.4867 47.5271 64.5295 47.1929 64.6122C46.8585 64.6789 46.5318 64.7137 46.2128 64.7165C46.133 64.7172 45.9891 64.6706 45.7809 64.5767C45.5727 64.4828 45.3564 64.373 45.132 64.2474C44.9234 64.1056 44.7228 63.9718 44.5303 63.8459C44.3537 63.7198 44.2412 63.6171 44.1926 63.5378C43.9666 63.2207 43.7803 62.8953 43.6338 62.5616C43.5033 62.2278 43.341 61.9102 43.147 61.6088C43.1144 61.5294 43.0256 61.4105 42.8807 61.2523C42.7515 61.0779 42.6868 60.9748 42.6865 60.9429C42.6542 60.8953 42.5976 60.8081 42.5168 60.6812C42.4519 60.5541 42.3789 60.4192 42.2979 60.2763C42.2327 60.1174 42.1677 59.9744 42.1027 59.8474C42.0538 59.7202 42.0291 59.6327 42.0287 59.5848C41.9805 59.5533 41.9081 59.4822 41.8115 59.3714C41.7306 59.2445 41.6739 59.1493 41.6415 59.0857C41.2377 58.515 40.834 57.9523 40.4304 57.3975C40.0426 56.8267 39.6626 56.2398 39.2905 55.6369C39.2902 55.605 39.2658 55.5494 39.2173 55.47C39.1847 55.3906 39.1523 55.335 39.1201 55.3034C38.9083 54.7948 38.6729 54.3183 38.4138 53.874C38.1547 53.4296 37.8874 52.9693 37.6121 52.4932C37.612 52.4773 37.5957 52.4375 37.5632 52.374C37.5306 52.2945 37.4901 52.2231 37.4417 52.1597C37.4091 52.0803 37.3766 52.0088 37.3441 51.9452C37.3116 51.8658 37.2872 51.8181 37.2711 51.8023C37.2392 51.8026 37.1351 51.7477 36.9586 51.6376C36.798 51.5113 36.6776 51.4167 36.5973 51.3536C36.5652 51.3379 36.5011 51.2986 36.4048 51.2356C36.3084 51.1567 36.2041 51.0858 36.0919 51.023C35.9955 50.9441 35.8992 50.8732 35.8029 50.8102C35.7067 50.7472 35.6425 50.7079 35.6105 50.6922C35.5783 50.6606 35.4898 50.5737 35.345 50.4314C35.2162 50.2889 35.1357 50.2019 35.1035 50.1703C35.0714 50.1546 35.0074 50.1233 34.9112 50.0763C34.8311 50.0291 34.735 49.9821 34.6229 49.9352C34.5266 49.8722 34.4304 49.8173 34.3343 49.7702C34.2382 49.7232 34.1662 49.692 34.1182 49.6764C34.0863 49.6767 33.9745 49.6617 33.7828 49.6315C33.591 49.5853 33.479 49.5464 33.4468 49.5148C33.399 49.5152 33.2869 49.4683 33.1106 49.3742C32.9343 49.28 32.8063 49.2333 32.7266 49.234L32.7026 49.2342C32.6069 49.235 32.4881 49.3238 32.3461 49.5005C32.2039 49.6612 32.062 49.8539 31.9204 50.0784C31.7787 50.287 31.6609 50.4954 31.567 50.7036C31.4731 50.9118 31.4265 51.0558 31.4272 51.1355C31.4298 51.4386 31.4642 51.7174 31.5302 51.972C31.6122 52.2265 31.6545 52.5053 31.6571 52.8084C31.6596 53.0955 31.6221 53.359 31.5444 53.5989C31.4827 53.8387 31.4529 54.0862 31.4552 54.3414C31.4577 54.6285 31.508 54.9152 31.6062 55.2015C31.7202 55.4717 31.8023 55.7341 31.8524 55.9889L31.8657 57.5201L31.8787 59.0035C31.8791 59.0513 31.8482 59.1712 31.7861 59.3632C31.7398 59.539 31.7168 59.6429 31.7171 59.6748L31.7185 59.8423C31.7225 60.3048 31.8296 60.6947 32.0398 61.0119C32.2657 61.313 32.5392 61.5738 32.8601 61.7943C33.1809 61.9989 33.5254 62.1793 33.8937 62.3356C34.2779 62.4918 34.6302 62.6482 34.9505 62.8049C35.2708 62.9457 35.5354 63.1029 35.7442 63.2765C35.9691 63.45 36.0825 63.6564 36.0846 63.8956C36.0863 64.087 36.016 64.2551 35.8737 64.3999C35.7472 64.5287 35.5807 64.6418 35.3742 64.7393C35.1835 64.8207 34.9846 64.8783 34.7775 64.912C34.5706 64.9616 34.3953 64.9871 34.2518 64.9883C34.1401 64.9893 33.9567 64.9829 33.7013 64.9692C33.4461 64.9714 33.1749 64.9658 32.8877 64.9524C32.6165 64.9548 32.3533 64.9491 32.0979 64.9354C31.8585 64.9215 31.6909 64.907 31.5951 64.8919L25.9245 64.8935C25.7976 64.9744 25.6385 65.0236 25.4472 65.0413C25.256 65.0589 25.0726 65.0684 24.8972 65.07L24.2751 65.0754L23.1028 65.0856C23.0068 65.0546 22.8706 64.984 22.6942 64.8739C22.5178 64.7637 22.429 64.6449 22.4279 64.5173C22.4269 64.4056 22.4658 64.2857 22.5444 64.1574C22.639 64.0289 22.7417 63.9164 22.8525 63.8197C22.9791 63.7069 23.106 63.6181 23.233 63.5532C23.3599 63.4723 23.4632 63.4315 23.543 63.4309L26.2465 63.4073C26.2784 63.407 26.3181 63.3827 26.3655 63.3344C26.4287 63.2701 26.4839 63.1978 26.5311 63.1177C26.5782 63.0375 26.6175 62.9654 26.6488 62.9013C26.696 62.8211 26.7194 62.7651 26.7191 62.7332L26.7152 62.2786L26.7047 61.0824C26.7203 61.0344 26.7352 60.9226 26.7497 60.747C26.7799 60.5553 26.8021 60.3557 26.8162 60.1483C26.8463 59.9406 26.8686 59.749 26.883 59.5734C26.8973 59.3819 26.9042 59.2622 26.9038 59.2144C26.9032 59.1506 26.8939 58.9991 26.8759 58.76C26.8578 58.5209 26.8478 58.2897 26.8459 58.0664C26.8449 57.9547 26.844 57.8511 26.8432 57.7554C26.8423 57.6597 26.8577 57.5957 26.8894 57.5635C26.8892 57.5476 26.8888 57.4997 26.8881 57.42C26.9032 57.3241 26.9173 57.1087 26.9303 56.7736C26.9433 56.4385 26.9549 55.9359 26.965 55.2659C26.975 54.5799 26.9747 53.6308 26.9641 52.4186C27.153 52.1299 27.2624 51.8737 27.2924 51.6501C27.3223 51.4266 27.336 51.1632 27.3333 50.8602C27.3323 50.7485 27.3231 50.6051 27.3056 50.4298C27.288 50.2385 27.2791 50.1269 27.2788 50.095C27.2785 50.0631 27.2461 50.0076 27.1816 49.9284C27.1329 49.8331 27.1085 49.7695 27.1082 49.7376L27.1078 49.6897C27.1041 49.2751 27.1324 48.8521 27.1924 48.4209C27.2683 47.9736 27.3044 47.5426 27.3008 47.1279C27.298 46.8089 27.256 46.57 27.1749 46.4112C27.1097 46.2523 27.0761 46.0611 27.0742 45.8378L27.0735 45.7661C27.0731 45.7182 27.0961 45.6143 27.1426 45.4544C27.2049 45.2784 27.2359 45.1745 27.2356 45.1426C27.251 45.0786 27.2661 44.9828 27.2809 44.855C27.2956 44.7114 27.3103 44.5677 27.325 44.424C27.3557 44.2802 27.3785 44.1523 27.3934 44.0406C27.4083 43.9128 27.4235 43.825 27.439 43.777L27.4263 42.3175L27.4212 41.7434C27.4207 41.6796 27.435 41.496 27.4643 41.1927C27.5094 40.8732 27.5543 40.5379 27.5991 40.1866C27.6597 39.8192 27.7126 39.4837 27.7578 39.1803C27.8028 38.8608 27.833 38.6612 27.8483 38.5813L27.8372 37.3133C27.8369 37.2814 27.8443 37.2175 27.8594 37.1217C27.8744 37.0099 27.8894 36.8981 27.9044 36.7863C27.9352 36.6584 27.9581 36.5466 27.9732 36.4507C27.9883 36.3549 27.9958 36.299 27.9957 36.2831L27.9942 36.1156L27.9928 35.9481C27.9925 35.9162 27.9439 35.8369 27.8471 35.7101C27.7502 35.5674 27.6856 35.4802 27.6534 35.4486C27.6211 35.401 27.5648 35.3457 27.4845 35.2826C27.4201 35.2194 27.3478 35.1562 27.2675 35.0931C27.203 35.0139 27.1387 34.9506 27.0744 34.9033C27.0262 34.8559 26.9941 34.8323 26.9781 34.8324C26.9459 34.8008 26.8181 34.77 26.5945 34.74C26.3708 34.6941 26.2269 34.6555 26.1628 34.6242C26.083 34.6249 25.9473 34.6021 25.7554 34.556C25.5636 34.5098 25.3638 34.4637 25.1561 34.4176C24.9483 34.3716 24.7485 34.3255 24.5567 34.2793C24.3808 34.233 24.2609 34.2021 24.197 34.1867C23.8773 34.1098 23.5649 33.953 23.2597 33.7164C22.9704 33.4637 22.8243 33.1699 22.8214 32.8349C22.8202 32.7073 22.8591 32.5953 22.9381 32.4989C23.0329 32.4024 23.1359 32.3217 23.247 32.257C23.3739 32.1761 23.509 32.1191 23.6523 32.0859C23.7954 32.0368 23.9148 32.0119 24.0105 32.011C24.2019 32.0094 24.3694 32.0159 24.5131 32.0306C24.6568 32.0453 24.8247 32.0917 25.0168 32.1697C25.5913 32.1966 26.1658 32.2315 26.7404 32.2743C27.3151 32.3172 27.8735 32.3362 28.4158 32.3315C28.9581 32.3267 29.4842 32.2982 29.9942 32.2459C30.5042 32.1936 30.9983 32.1494 31.4765 32.1134C31.6194 32.0324 31.7386 31.9835 31.8341 31.9667C31.9297 31.9499 32.0413 31.9409 32.1689 31.9398C32.3762 31.938 32.5443 32.0004 32.673 32.1268C32.8175 32.2372 32.9934 32.2915 33.2008 32.2897C33.5995 32.2862 33.9901 32.2589 34.3725 32.2077C34.7707 32.1404 35.1609 32.0732 35.5431 32.0061C35.9254 31.9389 36.2997 31.8799 36.6661 31.8288C37.0484 31.7617 37.4389 31.7264 37.8376 31.7229L38.7468 31.7149C38.8432 31.7939 38.9633 31.8486 39.1071 31.8793C39.2509 31.9099 39.3947 31.9326 39.5384 31.9473C39.6821 31.962 39.8178 31.9768 39.9455 31.9916C40.0731 31.9905 40.1769 32.0055 40.257 32.0367C40.3209 32.0521 40.4173 32.131 40.5461 32.2735C40.6749 32.4 40.7553 32.479 40.7875 32.5106L43.4504 33.3248C43.4504 33.3248 43.4987 33.3723 43.5952 33.4671C43.6916 33.546 43.7962 33.6488 43.909 33.7754C44.0377 33.9019 44.1584 34.0285 44.2712 34.1551C44.3999 34.2816 44.4965 34.3844 44.561 34.4636C44.5932 34.4952 44.6578 34.5824 44.7547 34.7251C44.8515 34.8519 44.916 34.9311 44.9482 34.9627C45.1579 35.232 45.423 35.4451 45.7434 35.6018C46.0797 35.7584 46.3125 35.9318 46.4418 36.1221C46.6688 36.5508 46.8481 36.9879 46.9796 37.4334C47.111 37.8629 47.2744 38.3161 47.47 38.7929C47.4701 38.8088 47.4864 38.8486 47.5189 38.9121C47.5513 38.9756 47.5839 39.0471 47.6165 39.1266C47.6489 39.1901 47.6815 39.2616 47.714 39.3411C47.7465 39.4046 47.7628 39.4443 47.7629 39.4603L47.7631 39.4842L47.7644 39.6278C47.7645 39.6437 47.749 39.6917 47.7178 39.7717C47.6866 39.8518 47.6555 39.9398 47.6244 40.0357C47.5932 40.1158 47.562 40.1958 47.5308 40.2758C47.4996 40.3558 47.4841 40.4118 47.4844 40.4437L47.4888 40.9461L47.5003 42.262C47.5005 42.2939 47.485 42.3419 47.4537 42.406C47.4223 42.47 47.3831 42.5422 47.3359 42.6223C47.2886 42.6866 47.2413 42.7508 47.194 42.815C47.1627 42.8791 47.1391 42.9191 47.1233 42.9352C47.1235 42.9512 47.116 43.0071 47.1009 43.1029C47.1016 43.1827 47.0943 43.2705 47.0792 43.3663C47.0641 43.4621 47.041 43.5501 47.0097 43.6301C46.9945 43.71 46.979 43.758 46.9632 43.7741C46.8557 44.2535 46.6607 44.7577 46.3782 45.2866C46.1116 45.8153 45.789 46.3205 45.4104 46.8024C45.0317 47.2683 44.6127 47.6946 44.1535 48.0815C43.6943 48.4683 43.2263 48.7675 42.7496 48.979C42.7177 48.9793 42.5982 48.9963 42.3912 49.03C42.2 49.0636 42.0887 49.1044 42.0573 49.1525C41.8033 49.2983 41.5822 49.5475 41.3938 49.9001C41.2215 50.2525 41.0726 50.5569 40.9472 50.8132C40.9634 50.8449 40.9796 50.8687 40.9957 50.8845C41.0279 50.9161 41.0679 50.9317 41.1157 50.9313C41.6781 51.405 42.2088 51.8948 42.7077 52.4009C43.2066 52.907 43.6741 53.4692 44.1102 54.0874C44.1104 54.1193 44.1351 54.2069 44.1842 54.35C44.2332 54.4772 44.2658 54.5566 44.282 54.5884C44.2823 54.6203 44.2987 54.676 44.3313 54.7555C44.3799 54.8348 44.4202 54.8903 44.4524 54.9219C44.582 55.1441 44.6956 55.3664 44.7932 55.5889C44.8907 55.7954 45.0043 56.0097 45.1338 56.2319C45.2474 56.4542 45.3527 56.6368 45.4496 56.7795C45.5466 56.9222 45.6435 57.0569 45.7403 57.1837C45.8371 57.3105 45.9419 57.4371 46.0546 57.5638C46.1674 57.6904 46.2964 57.8488 46.4416 58.0389C46.8289 58.546 47.2164 59.0849 47.6042 59.6558C48.0078 60.2106 48.4664 60.6612 48.9798 61.0076C49.2848 61.2283 49.6293 61.4087 50.0134 61.5489C50.4133 61.673 50.7814 61.8213 51.1179 61.9939C51.4543 62.1505 51.7353 62.3713 51.9611 62.6565C52.2027 62.9255 52.3258 63.3153 52.3302 63.8257L52.3336 64.2084C52.3343 64.2882 52.3271 64.376 52.3119 64.4718C52.3128 64.5675 52.2735 64.6317 52.194 64.6643C52.1621 64.6646 52.0586 64.6814 51.8834 64.7148C51.7084 64.7642 51.5811 64.8052 51.5016 64.8378C51.4697 64.8381 51.382 64.8388 51.2385 64.8401C51.095 64.8573 50.9197 64.8748 50.7125 64.8925C50.5213 64.9102 50.322 64.9279 50.1148 64.9456C49.9237 64.9792 49.7644 65.0045 49.637 65.0216L49.5891 65.022C49.4934 65.0228 49.3974 64.9918 49.3012 64.9288C49.2051 64.8818 49.1008 64.8189 48.9885 64.7401C48.8922 64.6771 48.7801 64.6223 48.6521 64.5756C48.5239 64.5129 48.3721 64.4823 48.1967 64.4838ZM55.5841 61.0696C55.5026 60.863 55.4532 60.6879 55.436 60.5445C55.4188 60.4011 55.4092 60.2178 55.4073 59.9945C55.4043 59.6595 55.4334 59.3323 55.4944 59.0127C55.5554 58.6931 55.6245 58.3815 55.7016 58.0778C55.7946 57.7739 55.8798 57.478 55.957 57.1902C56.0501 56.8864 56.1272 56.5826 56.1883 56.279C56.2648 55.8955 56.3333 55.5201 56.3939 55.1527C56.4703 54.7692 56.675 54.4643 57.008 54.2381C57.0557 54.2217 57.1433 54.205 57.2707 54.1879C57.3982 54.1709 57.5336 54.1537 57.677 54.1365C57.8204 54.1193 57.9479 54.1023 58.0594 54.0853C58.1869 54.0683 58.2745 54.0595 58.3224 54.0591C58.3862 54.0586 58.4743 54.0977 58.5866 54.1764C58.7149 54.2551 58.7953 54.3262 58.8277 54.3897C59.087 54.85 59.29 55.2709 59.4369 55.6525C59.5838 56.034 59.7713 56.503 59.9995 57.0592L60.1695 57.3449L60.1783 58.3497C60.2278 58.5407 60.293 58.7076 60.374 58.8505C60.4708 58.9772 60.5756 59.096 60.6882 59.2066C60.8007 59.3014 60.9132 59.3961 61.0256 59.4908C61.1541 59.5854 61.2827 59.6959 61.4114 59.8224C61.5244 59.9809 61.6216 60.1476 61.7028 60.3223C61.7999 60.481 61.9049 60.6316 62.0178 60.7742C62.1307 60.9168 62.2674 61.0432 62.4279 61.1534C62.5882 61.2478 62.804 61.2937 63.0751 61.2914C63.1871 61.3223 63.4106 61.3522 63.7459 61.3812C64.097 61.4101 64.4642 61.4467 64.8474 61.4912C65.2465 61.5197 65.6136 61.5484 65.9488 61.5773C66.3 61.6062 66.5395 61.628 66.6672 61.6428L66.8825 61.641C67.2334 61.6379 67.5677 61.5552 67.8853 61.3929C68.2187 61.2146 68.5444 61.0682 68.8624 60.9537C68.8941 60.9216 69.0054 60.8887 69.1966 60.8551C69.3875 60.8056 69.499 60.7807 69.5309 60.7804C69.5467 60.7643 69.6179 60.6999 69.7445 60.5871C69.887 60.4583 69.9898 60.3617 70.053 60.2973C70.0845 60.2492 70.1318 60.177 70.1947 60.0807C70.2736 59.9844 70.3446 59.896 70.4077 59.8157C70.4867 59.7193 70.5498 59.639 70.5971 59.5748C70.6603 59.5104 70.6998 59.4702 70.7156 59.4541C70.7155 59.4382 70.7151 59.3903 70.7144 59.3106C70.7295 59.2147 70.7446 59.1189 70.7597 59.023C70.7748 58.9272 70.79 58.8393 70.8053 58.7595C70.8205 58.6796 70.844 58.6315 70.8758 58.6153C70.8757 58.5993 70.8913 58.5593 70.9226 58.4952C70.9538 58.4152 70.9851 58.3432 71.0164 58.2791C71.0476 58.199 71.0789 58.127 71.1102 58.0629C71.1415 57.9829 71.157 57.9349 71.1568 57.9189C71.1725 57.8869 71.1879 57.823 71.203 57.7271C71.2181 57.6313 71.2333 57.5355 71.2484 57.4396C71.2633 57.3278 71.2785 57.232 71.2937 57.1521C71.3088 57.0563 71.3162 56.9924 71.316 56.9605C71.3154 56.8967 71.2825 56.7773 71.2171 56.6025C71.1676 56.4115 71.1427 56.3 71.1424 56.2681C71.1259 56.2045 71.1088 56.069 71.091 55.8618C71.0733 55.6546 71.0554 55.4315 71.0373 55.1923C71.0193 54.9532 71.0015 54.7381 70.9839 54.5468C70.9661 54.3396 70.9569 54.1961 70.9562 54.1164C70.9395 54.0367 70.8828 53.9336 70.786 53.8068C70.689 53.6641 70.5761 53.5215 70.4473 53.3791C70.3342 53.2205 70.2134 53.078 70.0846 52.9516C69.9558 52.8091 69.8511 52.6984 69.7707 52.6193C69.5932 52.3816 69.3759 52.1602 69.1189 51.9551C68.8619 51.7499 68.5973 51.5927 68.3252 51.4835C68.2771 51.452 68.1811 51.4209 68.0373 51.3903C67.8933 51.3437 67.8054 51.3205 67.7735 51.3208C67.7574 51.305 67.7092 51.2655 67.6289 51.2024C67.5484 51.1234 67.4601 51.0523 67.3638 50.9894C67.2834 50.9103 67.203 50.8392 67.1227 50.7761C67.0424 50.713 66.9862 50.6737 66.9542 50.658C66.9221 50.6423 66.8661 50.6189 66.7861 50.5877C66.7059 50.5405 66.6339 50.5172 66.5701 50.5178C66.554 50.502 66.4899 50.4706 66.3779 50.4237C66.2658 50.3769 66.1458 50.3301 66.0178 50.2833C65.8896 50.2206 65.7695 50.1659 65.6574 50.119C65.5453 50.0721 65.4813 50.0408 65.4652 50.025C65.3692 49.9939 65.2972 49.9626 65.249 49.9311C65.201 49.9156 65.1609 49.892 65.1288 49.8604C65.0967 49.8447 65.0485 49.8053 64.9842 49.742C64.9198 49.6788 64.8474 49.6076 64.767 49.5286C64.7025 49.4494 64.6381 49.3782 64.5737 49.3149C64.5093 49.2517 64.4691 49.2122 64.453 49.1964C64.4369 49.1805 64.3889 49.157 64.3089 49.1258C64.2446 49.0785 64.1645 49.0314 64.0684 48.9844C63.988 48.9213 63.8998 48.8662 63.8037 48.8192C63.7234 48.7561 63.6592 48.7088 63.6111 48.6773C63.1303 48.4263 62.6652 48.1353 62.2157 47.8042C61.7821 47.473 61.3486 47.1418 60.915 46.8106C60.4813 46.4635 60.0397 46.1324 59.5903 45.8173C59.1568 45.4861 58.7075 45.1869 58.2426 44.9198C58.1781 44.8406 58.0731 44.69 57.9276 44.468C57.7821 44.2459 57.6285 44.008 57.4668 43.7542C57.321 43.5002 57.1755 43.2702 57.0301 43.0641C56.8846 42.8421 56.7876 42.6914 56.739 42.6121C56.7068 42.5804 56.6664 42.517 56.6177 42.4217C56.569 42.3264 56.5124 42.2312 56.4478 42.1361C56.3989 42.0248 56.3502 41.9216 56.3015 41.8263C56.2688 41.7309 56.2442 41.6593 56.2278 41.6116L56.217 40.3675C56.2117 39.7614 56.2224 39.1552 56.249 38.5488C56.2915 37.9423 56.3821 37.3593 56.5208 36.7998C56.6445 36.3521 56.8636 35.8716 57.1782 35.3584C57.5085 34.8292 57.887 34.3234 58.3134 33.8411C58.7398 33.3429 59.1826 32.9084 59.6419 32.5375C60.1012 32.1507 60.5374 31.8757 60.9507 31.7126C60.9667 31.7124 61.0225 31.712 61.1182 31.7111C61.2137 31.6943 61.3174 31.6855 61.429 31.6845C61.5565 31.6674 61.668 31.6505 61.7635 31.6337C61.875 31.6168 61.9467 31.6002 61.9784 31.584C62.0263 31.5836 62.1218 31.5668 62.2651 31.5336C62.4084 31.5005 62.5596 31.4593 62.7186 31.41C62.8777 31.3608 63.0289 31.3196 63.1722 31.2864C63.3154 31.2533 63.411 31.2365 63.4589 31.2361C63.4748 31.2359 63.5466 31.2353 63.6742 31.2342C63.8177 31.233 63.9772 31.2316 64.1527 31.23C64.3439 31.2124 64.5353 31.2028 64.7267 31.2011C64.9181 31.1994 65.0616 31.1982 65.1573 31.1973C65.2211 31.1968 65.3407 31.1957 65.5162 31.1942C65.6916 31.1927 65.8751 31.199 66.0667 31.2133C66.2581 31.2117 66.4335 31.2101 66.593 31.2087C66.7685 31.2072 66.8881 31.2062 66.9519 31.2056C67.096 31.2681 67.2479 31.3147 67.4077 31.3452C67.5674 31.3597 67.7191 31.3823 67.8629 31.413C68.0226 31.4276 68.1743 31.4502 68.3181 31.4808C68.4779 31.5113 68.6299 31.5658 68.7741 31.6443C68.8065 31.6919 68.8629 31.7632 68.9435 31.8582C69.0239 31.9372 69.0803 31.9926 69.1124 32.0242C69.4349 32.4201 69.7887 32.7441 70.1737 32.9959C70.5587 33.2478 71.0224 33.3713 71.5647 33.3666C71.9475 33.3633 72.2342 33.3129 72.4247 33.2155C72.6151 33.1022 72.7736 32.9812 72.9001 32.8525C73.0264 32.7078 73.153 32.5871 73.2797 32.4903C73.4064 32.3775 73.6053 32.3199 73.8764 32.3176C74.02 32.3163 74.1238 32.3314 74.1878 32.3627C74.2518 32.3781 74.3403 32.473 74.4535 32.6475C74.4858 32.6951 74.5345 32.7824 74.5994 32.9094C74.6643 33.0365 74.7293 33.1715 74.7943 33.3145C74.8753 33.4573 74.9403 33.5924 74.9893 33.7195C75.054 33.8306 75.1026 33.91 75.1349 33.9575L75.136 34.0772L75.1378 34.2925C75.122 34.3086 75.0985 34.3566 75.0673 34.4367C75.0521 34.5166 75.0289 34.6045 74.9978 34.7005C74.9827 34.7963 74.9675 34.8842 74.9523 34.9641C74.937 35.0439 74.9295 35.0919 74.9296 35.1078L74.9469 37.0936C74.7422 37.3984 74.6091 37.6787 74.5475 37.9345C74.5019 38.1901 74.4167 38.478 74.2919 38.7981C74.2921 38.83 74.2532 38.942 74.1752 39.1341C74.0969 39.3102 74.042 39.4064 74.0102 39.4226C73.9323 39.6307 73.8621 39.8147 73.7997 39.9748C73.7531 40.1188 73.6824 40.247 73.5877 40.3595C73.5088 40.4559 73.3898 40.5287 73.2307 40.5779C73.0876 40.627 72.8804 40.6528 72.6093 40.6551C72.2424 40.6583 71.9388 40.5892 71.6982 40.4477C71.4577 40.3063 71.2647 40.1245 71.1192 39.9025C70.9738 39.6804 70.8519 39.4263 70.7537 39.14C70.6714 38.8536 70.5892 38.5672 70.5069 38.2808C70.4245 37.9785 70.3343 37.6921 70.2362 37.4218C70.138 37.1355 70.0083 36.8894 69.847 36.6835C69.8148 36.6519 69.7423 36.5727 69.6296 36.4461C69.5327 36.3193 69.4199 36.1847 69.2911 36.0423C69.1622 35.8999 69.0334 35.7654 68.9047 35.6389C68.7918 35.4964 68.7032 35.3934 68.6388 35.3302C68.5582 35.2352 68.4295 35.1087 68.2527 34.9507C68.0758 34.7928 67.891 34.6349 67.6982 34.477C67.5053 34.3033 67.3127 34.1614 67.1203 34.0514C66.9278 33.9255 66.7677 33.8631 66.6401 33.8642L64.4869 33.883C64.3745 33.8042 64.2704 33.7573 64.1746 33.7421C64.0947 33.7269 64.0069 33.7197 63.9112 33.7205L63.648 33.7228C63.1564 34.0461 62.689 34.4091 62.2459 34.8117C61.8028 35.2144 61.3837 35.6328 60.9887 36.0669L60.9916 36.4019C60.9941 36.689 60.9643 36.9285 60.9022 37.1204C60.856 37.3123 60.8342 37.5517 60.8367 37.8388L60.839 38.102C60.8393 38.1339 60.8641 38.2373 60.9135 38.4124C60.9788 38.5873 61.0116 38.6907 61.0119 38.7226C61.0302 38.9936 61.0403 39.2328 61.0421 39.4401C61.0439 39.6475 61.0536 39.8468 61.0712 40.038C61.1048 40.2291 61.1543 40.4201 61.2198 40.611C61.2853 40.8018 61.3907 41.0082 61.5362 41.2303C61.5844 41.2618 61.6326 41.3012 61.6808 41.3487L61.898 41.5621C61.9463 41.6095 62.0589 41.7122 62.2357 41.8702C62.4125 42.0282 62.5975 42.202 62.7906 42.3918C62.9994 42.5654 63.1923 42.7312 63.3691 42.8892C63.5619 43.047 63.6825 43.1496 63.7307 43.1971C63.7468 43.2129 63.787 43.2524 63.8514 43.3156C63.9158 43.3789 63.9802 43.4501 64.0447 43.5293C64.1251 43.6083 64.1975 43.6795 64.2619 43.7427C64.3422 43.8058 64.3904 43.8453 64.4065 43.8611C64.4385 43.8768 64.5186 43.916 64.6468 43.9786C64.7909 44.0412 64.9511 44.1196 65.1273 44.2137C65.3035 44.2919 65.4797 44.3781 65.656 44.4723C65.8323 44.5665 65.9685 44.6371 66.0646 44.6841C66.4808 44.8559 66.9053 45.0596 67.338 45.2951C67.7867 45.5304 68.2503 45.646 68.7288 45.6418C69.4989 46.1455 70.317 46.6728 71.1831 47.2235C72.0493 47.7742 72.8439 48.3495 73.5669 48.9493C73.631 48.9807 73.6953 49.0359 73.7598 49.1151C73.8402 49.1942 73.8966 49.2495 73.9287 49.2811C73.945 49.3129 73.9694 49.3765 74.0022 49.4719C74.0507 49.5513 74.0994 49.6465 74.1482 49.7578C74.213 49.8689 74.2618 49.9721 74.2945 50.0675C74.3432 50.1628 74.3756 50.2184 74.3917 50.2342C74.6664 50.6465 74.9489 51.0269 75.2391 51.3753C75.5291 51.7077 75.7479 52.1046 75.8955 52.5659C75.9117 52.5976 75.9283 52.6693 75.9452 52.7808C75.9781 52.8921 76.0031 53.0195 76.0203 53.1629C76.0374 53.2904 76.0544 53.4179 76.0715 53.5453C76.0884 53.6568 76.1049 53.7205 76.121 53.7363C76.1213 53.7682 76.1459 53.8477 76.1949 53.9749C76.2598 54.102 76.2925 54.1894 76.2929 54.2373L76.2958 54.5722C76.2982 54.8434 76.2443 55.0672 76.1342 55.2436C76.0399 55.4039 75.9701 55.6358 75.9249 55.9393C75.9255 56.0031 75.9349 56.1705 75.9532 56.4415C75.9714 56.6965 75.9816 56.9517 75.9838 57.2069C75.9865 57.5099 75.9721 57.6935 75.9408 57.7576C75.9409 57.7735 75.9174 57.8216 75.8703 57.9017C75.839 57.9818 75.792 58.0699 75.729 58.1662C75.6818 58.2463 75.6347 58.3265 75.5875 58.4067C75.5404 58.4868 75.509 58.5429 75.4933 58.575C75.4618 58.6231 75.3913 58.7673 75.2817 59.0075C75.172 59.2318 75.0466 59.4801 74.9054 59.7525C74.78 60.0088 74.6626 60.2571 74.553 60.4973C74.4433 60.7216 74.3647 60.8579 74.3173 60.9061C74.3176 60.938 74.2624 61.0103 74.1517 61.1229C74.057 61.2354 73.9385 61.364 73.7962 61.5088C73.6539 61.6536 73.5116 61.7984 73.3693 61.9433C73.2428 62.072 73.14 62.1765 73.061 62.257C72.5546 62.724 72.0318 63.1353 71.4926 63.4909C70.9532 63.8306 70.3653 64.091 69.7288 64.272C69.6492 64.2886 69.4661 64.3301 69.1796 64.3964C68.8931 64.4627 68.5826 64.5292 68.2482 64.596C67.914 64.6786 67.5876 64.7533 67.2692 64.8198C66.9667 64.8863 66.7357 64.9282 66.5764 64.9455L66.4089 64.947C65.5476 64.9545 64.6542 64.9384 63.7287 64.8986C62.8191 64.8587 61.9327 64.7308 61.0695 64.515C60.9096 64.4686 60.7655 64.406 60.6372 64.3274C60.5087 64.2328 60.3723 64.1383 60.2279 64.0438C60.0995 63.9493 59.9711 63.8547 59.8426 63.7601C59.7142 63.6655 59.57 63.587 59.4099 63.5246C59.2978 63.4777 59.1139 63.4155 58.858 63.338C58.6019 63.2445 58.3379 63.1511 58.0659 63.0578C57.8099 62.9643 57.5699 62.8787 57.3459 62.8009C57.1218 62.7071 56.9775 62.6286 56.9132 62.5654C56.8648 62.502 56.7761 62.3991 56.6473 62.2567C56.5184 62.1142 56.3815 61.9639 56.2366 61.8056C56.0916 61.6474 55.9547 61.4971 55.8259 61.3546C55.713 61.212 55.6324 61.117 55.5841 61.0696Z" fill="#204998" fill-opacity="0.2"/>
</svg>
