<svg xmlns="http://www.w3.org/2000/svg" width="37" height="36" viewBox="0 0 37 36" fill="none">
  <g clip-path="url(#clip0_1_318)">
    <rect x="3.05176e-05" width="36" height="36" rx="6" fill="#FFF4DE"/>
    <mask id="mask0_1_318" style="mask-type:luminance" maskUnits="userSpaceOnUse" x="9" y="9" width="19" height="18">
      <rect x="9.62039" y="9.36011" width="17.76" height="17.28" fill="white"/>
    </mask>
    <g mask="url(#mask0_1_318)">
      <path fill-rule="evenodd" clip-rule="evenodd" d="M11.1016 14.5028C11.1017 12.8554 12.4742 11.52 14.1674 11.52H22.8343C24.5276 11.52 25.8991 12.8555 25.8993 14.5026M25.8993 14.5026L25.9008 16.4487C25.9009 16.592 25.8425 16.7295 25.7384 16.8308C25.6343 16.9322 25.4931 16.9891 25.3458 16.9891C24.7344 16.9891 24.2432 17.467 24.2432 18.0612C24.2432 18.6549 24.7346 19.1333 25.3458 19.1333C25.6523 19.1333 25.9008 19.3751 25.9008 19.6733V21.6173C25.9008 23.2647 24.5291 24.6003 22.835 24.6003H14.1659C12.4724 24.6003 11.1008 23.2646 11.1008 21.6173V19.6733C11.1008 19.3751 11.3493 19.1333 11.6558 19.1333C12.2662 19.1333 12.7577 18.6551 12.7577 18.0612C12.7577 17.4945 12.2956 17.0518 11.6558 17.0518C11.5086 17.0518 11.3674 16.9949 11.2633 16.8935C11.1592 16.7922 11.1008 16.6548 11.1008 16.5116L11.1016 14.5028C11.1016 14.5027 11.1016 14.5029 11.1016 14.5028M12.2116 14.503L12.211 16.0363C13.149 16.2587 13.8677 17.037 13.8677 18.0612C13.8677 19.065 13.1648 19.9062 12.2108 20.1453V21.6173C12.2108 22.6686 13.0859 23.5203 14.1659 23.5203H22.835C23.9159 23.5203 24.7908 22.6685 24.7908 21.6173V20.1453C23.8364 19.9064 23.1332 19.0652 23.1332 18.0612C23.1332 17.0567 23.8363 16.2161 24.7905 15.9772L24.7893 14.5034C24.7893 13.4521 23.9143 12.6 22.8343 12.6H14.1674C13.0871 12.6 12.2116 13.4519 12.2116 14.503ZM11.1016 14.5028L25.8993 14.5026L11.1016 14.5028Z" fill="#FFA800"/>
      <path fill-rule="evenodd" clip-rule="evenodd" d="M19.1455 15.4575L19.6603 16.4721L20.8133 16.6352C21.3996 16.7198 21.6384 17.4218 21.2108 17.8284L21.2099 17.8293L20.3767 18.6181L20.5736 19.734C20.675 20.31 20.0537 20.7379 19.531 20.4727L19.5293 20.4719L18.5 19.9452L17.4691 20.4727C16.9464 20.7379 16.325 20.3103 16.4264 19.7343L16.6234 18.618L15.7907 17.8291L15.79 17.8284C15.3624 17.4218 15.6013 16.7198 16.1875 16.6352L16.189 16.635L17.3397 16.4721L17.8551 15.4564L17.8558 15.4552C18.1192 14.9395 18.8804 14.9336 19.1451 15.4568C19.1453 15.4571 19.1454 15.4573 19.1455 15.4575ZM18.2059 17.2047C18.125 17.364 17.9688 17.4744 17.7881 17.5L17.1324 17.5928L17.607 18.0425C17.738 18.1666 17.7978 18.3454 17.7668 18.5208L17.6544 19.1577L18.2417 18.8572C18.4034 18.7744 18.5966 18.7744 18.7583 18.8572L19.3457 19.1577L19.2332 18.5208C19.2023 18.3454 19.2621 18.1664 19.3932 18.0423L19.868 17.5928L19.212 17.5C19.0313 17.4744 18.875 17.364 18.7942 17.2047L18.5 16.625L18.2059 17.2047Z" fill="#FFA800"/>
    </g>
  </g>
  <defs>
    <clipPath id="clip0_1_318">
      <rect width="37" height="36" fill="white"/>
    </clipPath>
  </defs>
</svg>