<svg xmlns="http://www.w3.org/2000/svg" width="65" height="36" viewBox="0 0 65 36" fill="none">
  <g clip-path="url(#clip0_1_301)">
    <rect x="0.00540161" width="36" height="36" rx="6" fill="#E2FFF3"/>
    <mask id="mask0_1_301" style="mask-type:luminance" maskUnits="userSpaceOnUse" x="3" y="3" width="30" height="30">
      <rect x="3.60501" y="3.6001" width="28.8" height="28.8" fill="white"/>
    </mask>
    <g mask="url(#mask0_1_301)">
      <mask id="mask1_1_301" style="mask-type:luminance" maskUnits="userSpaceOnUse" x="9" y="9" width="18" height="18">
        <rect x="9.36478" y="9.36011" width="17.28" height="17.28" fill="white"/>
      </mask>
      <g mask="url(#mask1_1_301)">
        <path fill-rule="evenodd" clip-rule="evenodd" d="M20.7653 24.84C22.973 24.84 24.6668 24.0426 24.1857 20.8331L23.6255 16.4834C23.3289 14.882 22.3075 14.269 21.4111 14.269H14.0826C13.1732 14.269 12.211 14.9281 11.8683 16.4834L11.3081 20.8331C10.8995 23.6801 12.5471 24.84 14.7549 24.84H20.7653Z" stroke="#4AB58E" stroke-width="1.5" stroke-linecap="round" stroke-linejoin="round"/>
        <path d="M14.6558 14.1109C14.6558 12.393 16.0485 11.0003 17.7664 11.0003C18.5937 10.9968 19.3883 11.3229 19.9745 11.9067C20.5608 12.4904 20.8903 13.2837 20.8903 14.1109" stroke="#4AB58E" stroke-width="1.5" stroke-linecap="round" stroke-linejoin="round"/>
        <path d="M15.6314 17.3535H15.6643" stroke="#4AB58E" stroke-width="1.5" stroke-linecap="round" stroke-linejoin="round"/>
        <path d="M19.8296 17.3535H19.8626" stroke="#4AB58E" stroke-width="1.5" stroke-linecap="round" stroke-linejoin="round"/>
      </g>
    </g>
  </g>
  <defs>
    <clipPath id="clip0_1_301">
      <rect width="64.4313" height="36" fill="white" transform="translate(0.00540161)"/>
    </clipPath>
  </defs>
</svg>