<svg xmlns="http://www.w3.org/2000/svg" width="25" height="24" viewBox="0 0 25 24" fill="none">
  <path d="M21.8509 18.5534C21.2081 17.9802 20.6452 17.3232 20.1776 16.6C19.6671 15.6017 19.3611 14.5115 19.2776 13.3934V10.1C19.282 8.34376 18.6449 6.64633 17.4861 5.32666C16.3272 4.007 14.7264 3.15592 12.9843 2.93335V2.07335C12.9843 1.83731 12.8905 1.61093 12.7236 1.44402C12.5567 1.27712 12.3303 1.18335 12.0943 1.18335C11.8582 1.18335 11.6319 1.27712 11.4649 1.44402C11.298 1.61093 11.2043 1.83731 11.2043 2.07335V2.94668C9.47778 3.1853 7.89625 4.04152 6.75262 5.35675C5.60899 6.67199 4.98076 8.35711 4.98427 10.1V13.3934C4.90077 14.5115 4.59479 15.6017 4.08427 16.6C3.62486 17.3216 3.07107 17.9785 2.4376 18.5534C2.36649 18.6158 2.3095 18.6927 2.27042 18.7789C2.23133 18.8651 2.21106 18.9587 2.21094 19.0534V19.96C2.21094 20.1368 2.28118 20.3064 2.4062 20.4314C2.53122 20.5564 2.70079 20.6267 2.8776 20.6267H21.4109C21.5877 20.6267 21.7573 20.5564 21.8823 20.4314C22.0074 20.3064 22.0776 20.1368 22.0776 19.96V19.0534C22.0775 18.9587 22.0572 18.8651 22.0181 18.7789C21.979 18.6927 21.9221 18.6158 21.8509 18.5534ZM3.5976 19.2934C4.21788 18.6942 4.764 18.0227 5.22427 17.2934C5.86735 16.0877 6.24256 14.7574 6.32427 13.3934V10.1C6.29783 9.31871 6.42889 8.54007 6.70963 7.81046C6.99038 7.08086 7.41508 6.41521 7.95844 5.85315C8.50179 5.2911 9.1527 4.84413 9.87239 4.53887C10.5921 4.2336 11.3658 4.07629 12.1476 4.07629C12.9294 4.07629 13.7031 4.2336 14.4228 4.53887C15.1425 4.84413 15.7934 5.2911 16.3368 5.85315C16.8801 6.41521 17.3048 7.08086 17.5856 7.81046C17.8663 8.54007 17.9974 9.31871 17.9709 10.1V13.3934C18.0527 14.7574 18.4279 16.0877 19.0709 17.2934C19.5312 18.0227 20.0773 18.6942 20.6976 19.2934H3.5976Z" fill="#FFA412"/>
  <path d="M12.1773 22.8533C12.5972 22.8436 13.0003 22.6857 13.315 22.4075C13.6298 22.1294 13.836 21.7488 13.8973 21.3333H10.3906C10.4536 21.7601 10.6695 22.1496 10.9982 22.4292C11.3268 22.7088 11.7458 22.8595 12.1773 22.8533Z" fill="#FFA412"/>
</svg>